Coordinates
version=1
nRows=9
nColumns=42
inDegrees=yes

Units are S.I. units (second, meters, Newtons, ...)
If the header above contains a line with 'inDegrees', this indicates whether rotational values are in degrees (yes) or radians (no).

endheader
time	pelvis_tilt	pelvis_list	pelvis_rotation	pelvis_tx	pelvis_ty	pelvis_tz	hip_flexion_r	hip_adduction_r	hip_rotation_r	knee_angle_r	knee_adduction_r	knee_angle_r_beta	ankle_angle_r	subtalar_angle_r	mtp_angle_r	hip_flexion_l	hip_adduction_l	hip_rotation_l	knee_angle_l	knee_adduction_l	knee_angle_l_beta	ankle_angle_l	subtalar_angle_l	mtp_angle_l	lumbar_extension	lumbar_bending	lumbar_rotation	arm_flex_r	arm_add_r	arm_rot_r	elbow_flex_r	pro_sup_r	wrist_flex_r	wrist_dev_r	arm_flex_l	arm_add_l	arm_rot_l	elbow_flex_l	pro_sup_l	wrist_flex_l	wrist_dev_l
      0.00000000	      9.63607983	     -0.33460137	     -6.62044788	     -1.03956702	      0.84744305	     -0.33912809	     12.31009524	     -3.98635901	    -14.63986048	     52.44905083	     -8.15434152	      0.91540863	     10.52377218	     -3.65957250	     -9.58649373	    -11.29654850	      1.86832582	     -6.93297531	      8.45588749	      6.27804417	      0.14758308	     15.01890057	     -6.94074202	     -9.58649373	    -23.90220532	     -1.82393969	      3.00597201	      3.99340450	    -15.85979115	     -4.18944773	     36.58140422	     90.00000001	      0.00000000	      0.00000000	      0.93454205	     -7.66300982	    -31.32322404	     32.61777063	     90.00000001	      0.00000000	      0.00000000
      0.01000000	      9.51652052	     -0.73343922	     -6.20216102	     -1.02513621	      0.84735818	     -0.33988991	     13.32969598	     -3.22585349	    -15.07876895	     49.23444824	     -7.40171501	      0.85930323	     10.88974786	     -3.53003157	     -9.44419218	    -12.94784809	      1.53092648	     -7.24884318	      7.27505932	      6.29089442	      0.12697374	     15.61838692	     -5.63461554	     -9.44419218	    -23.73252278	     -1.04452802	      2.23335779	      3.91950456	    -15.77877243	     -4.23146429	     36.30712490	     90.00000001	      0.00000000	      0.00000000	      0.79445083	     -7.93175035	    -27.89025958	     34.83636476	     90.00000001	      0.00000000	      0.00000000
      0.02000000	      9.31337940	     -0.86419163	     -5.76071895	     -1.01068240	      0.84655529	     -0.34082545	     14.34886884	     -2.89956965	    -15.20172947	     45.92560209	     -6.20478137	      0.80155297	     11.28625194	     -3.65961611	     -9.37756843	    -14.38308959	      1.48848607	     -7.41449393	      6.24562339	      6.27940996	      0.10900669	     16.19796448	     -4.45404125	     -9.37756843	    -23.43333177	     -0.54454981	      1.19791112	      4.04081783	    -15.60272656	     -4.32987306	     35.78880754	     90.00000001	      0.00000000	      0.00000000	      0.64567169	     -8.11250141	    -25.94595681	     37.47841415	     90.00000001	      0.00000000	      0.00000000
      0.03000000	      9.37099571	     -1.14403326	     -5.23994232	     -0.99594907	      0.84571192	     -0.34154750	     14.74860422	     -2.40058482	    -15.55901802	     42.09108128	     -5.08326166	      0.73462795	     11.15466834	     -4.20061107	     -9.27643447	    -16.10435804	      1.20372038	     -7.74930137	      5.33365322	      6.36372688	      0.09308981	     16.76330342	     -3.22989365	     -9.27643447	    -23.40675378	      0.07982553	      0.29195506	      3.98272776	    -15.49682766	     -4.50403052	     35.51069529	     90.00000001	      0.00000000	      0.00000000	      0.49659262	     -8.67944204	    -22.66171871	     39.94994777	     90.00000001	      0.00000000	      0.00000000
      0.04000000	      9.23707564	     -1.03671114	     -4.72773523	     -0.98129829	      0.84397344	     -0.34247534	     15.36187956	     -2.49870523	    -15.74274051	     38.33455496	     -3.65961848	      0.66906420	     11.41410809	     -4.27142175	     -9.21474173	    -17.44093916	      1.40819935	     -7.97557648	      4.62024374	      6.25785799	      0.08063847	     17.32980506	     -2.02953627	     -9.21474173	    -23.13495006	      0.29914512	     -0.81945629	      4.00474112	    -15.35660880	     -4.64167103	     35.09253320	     90.00000001	      0.00000000	      0.00000000	      0.45289632	     -9.06193163	    -21.17857470	     42.61331476	     90.00000001	      0.00000000	      0.00000000
      0.05000000	      9.27921240	     -1.13647156	     -4.29440035	     -0.96637498	      0.84214753	     -0.34310071	     15.51390317	     -2.29228876	    -16.23636316	     34.18640947	     -2.49418352	      0.59666540	     11.25837967	     -4.42239931	     -9.11582575	    -18.98814782	      1.28641949	     -8.57473796	      4.04445961	      6.41638171	      0.07058914	     17.95974101	     -0.68302866	     -9.11582575	    -23.03325277	      0.70105631	     -1.60392051	      3.86776481	    -15.28286556	     -4.90022799	     34.86503156	     90.00000001	      0.00000000	      0.00000000	      0.68322446	     -9.48677870	    -19.34161550	     44.63520232	     90.00000001	      0.00000000	      0.00000000
      0.06000000	      9.24009858	     -0.90527419	     -3.92084247	     -0.95156221	      0.83972494	     -0.34383740	     15.74893881	     -2.58681223	    -16.67780532	     30.15867818	     -1.15148634	      0.52636823	     11.49977838	     -3.79819397	     -9.04704433	    -20.32072986	      1.63368237	     -9.12197304	      3.61783667	      6.35873632	      0.06314316	     18.55018418	      0.56812608	     -9.04704433	    -22.83178152	      0.73607497	     -2.45288918	      3.78681742	    -15.21156346	     -5.13899046	     34.52940623	     90.00000001	      0.00000000	      0.00000000	      1.01134216	     -9.81078193	    -18.36292038	     46.66054007	     90.00000001	      0.00000000	      0.00000000
      0.07000000	      9.20975303	     -0.77193359	     -3.53348709	     -0.93666391	      0.83705612	     -0.34429202	     15.77472093	     -2.69634377	    -17.34062816	     25.94600983	      0.00485189	      0.45284330	     11.45368870	     -2.51461107	     -8.94748324	    -21.60371326	      1.76011252	     -9.93751064	      3.38625302	      6.45115343	      0.05910126	     19.26913905	      2.05349955	     -8.94748324	    -22.63772367	      0.84910206	     -3.12836564	      3.53710989	    -15.16728414	     -5.56481476	     34.39279626	     90.00000001	      0.00000000	      0.00000000	      1.53747310	    -10.13225138	    -17.39431564	     48.34768830	     90.00000001	      0.00000000	      0.00000000
      0.08000000	      8.96624214	     -0.15407966	     -3.32701175	     -0.92214945	      0.83373591	     -0.34496454	     16.17090440	     -3.45215378	    -17.64325593	     22.15481207	      1.35439676	      0.38667442	     11.55481193	     -0.87222732	     -8.90759989	    -22.49539878	      2.64569556	    -10.42436851	      3.27874572	      6.16741465	      0.05722491	     19.72785877	      2.90744728	     -8.90759989	    -22.23306320	      0.43291774	     -3.78233108	      3.32736907	    -15.14934185	     -5.77813620	     34.21051503	     90.00000001	      0.00000000	      0.00000000	      2.09863817	    -10.40955318	    -16.73999510	     49.98511643	     90.00000001	      0.00000000	      0.00000000
